<?xml version="1.0" encoding="utf-8"?>
<!-- Generator: Adobe Illustrator 16.0.0, SVG Export Plug-In . SVG Version: 6.00 Build 0)  -->
<!DOCTYPE svg PUBLIC "-//W3C//DTD SVG 1.1//EN" "http://www.w3.org/Graphics/SVG/1.1/DTD/svg11.dtd">
<svg version="1.1" id="Layer_1" xmlns="http://www.w3.org/2000/svg" xmlns:xlink="http://www.w3.org/1999/xlink" x="0px" y="0px"
	 width="557.4741211px" height="487.9213867px" viewBox="0 0 557.4741211 487.9213867"
	 enable-background="new 0 0 557.4741211 487.9213867" xml:space="preserve">
<g>
	<g>
		<path fill="#010101" d="M1.2548828,332.0585938C0.5493164,332.0585938,0,331.5092773,0,330.8027344v-52.4482422
			c0-0.7070312,0.5493164-1.2558594,1.2548828-1.2558594h7.1450195c0.706543,0,1.2563477,0.5488281,1.2563477,1.2558594v21.434082
			l20.7285156-21.7485352c0.5498047-0.628418,1.3344727-0.9414062,2.1191406-0.9414062h9.5795898
			c0.3144531,0,0.6289062,0.3129883,0.6289062,0.6269531c0,0.3925781-0.1586914,0.7861328-0.4731445,1.0996094
			l-24.2607422,24.8896484l25.9106445,26.4589844c0.3129883,0.3144531,0.4716797,0.7070312,0.4716797,1.1787109
			c0,0.3916016-0.3139648,0.7060547-0.7080078,0.7060547h-9.578125c-0.7861328,0-1.5708008-0.3144531-2.1206055-0.9414062
			L9.65625,307.640625v23.1621094c0,0.706543-0.5498047,1.2558594-1.2563477,1.2558594H1.2548828z"/>
		<path fill="#010101" d="M69.3300781,330.8027344c0,0.706543-0.5498047,1.2558594-1.2568359,1.2558594h-7.1445312
			c-0.7055664,0-1.2553711-0.5493164-1.2553711-1.2558594v-52.4482422c0-0.7070312,0.5498047-1.2558594,1.2553711-1.2558594
			h7.1445312c0.7070312,0,1.2568359,0.5488281,1.2568359,1.2558594V330.8027344z"/>
		<path fill="#010101" d="M90.2167969,332.0585938c-0.7075195,0-1.2573242-0.5493164-1.2573242-1.2558594v-53.3120117
			c0-0.5498047,0.4716797-1.0209961,0.9433594-1.0209961c0.6274414,0,1.2543945,0.2358398,1.7260742,0.706543l32.5849609,33.1337891
			v-31.9555664c0-0.7070312,0.5493164-1.2558594,1.2548828-1.2558594h7.1459961
			c0.7060547,0,1.2553711,0.5488281,1.2553711,1.2558594v53.3896484c0,0.5498047-0.4707031,1.0214844-1.0991211,1.0214844
			c-0.6279297,0-1.2548828-0.2353516-1.7280273-0.784668l-32.4257812-33.7631836v32.5849609
			c0,0.706543-0.5498047,1.2558594-1.2563477,1.2558594H90.2167969z"/>
		<path fill="#010101" d="M163.0791016,309.2890625v14.1328125h25.9111328c0.706543,0,1.2563477,0.5498047,1.2563477,1.2568359
			v6.1240234c0,0.706543-0.5498047,1.2558594-1.2563477,1.2558594h-34.2333984
			c-0.7050781,0-1.2543945-0.5493164-1.2543945-1.2558594v-52.4482422c0-0.7070312,0.5493164-1.2558594,1.2543945-1.2558594
			h34.2333984c0.706543,0,1.2563477,0.5488281,1.2563477,1.2558594v6.1240234c0,0.7070312-0.5498047,1.2568359-1.2563477,1.2568359
			h-25.9111328v14.9169922h20.0224609c0.7060547,0,1.2563477,0.5498047,1.2563477,1.2563477v6.1240234
			c0,0.7070312-0.550293,1.2563477-1.2563477,1.2563477H163.0791016z"/>
		<path fill="#010101" d="M273.7104492,291.1523438c-0.5493164,0.4716797-1.3364258,0.3920898-1.8066406-0.078125
			c-3.1416016-3.1416016-8.4013672-5.9677734-13.5825195-5.9677734c-15.3105469,0-17.5097656,14.5249023-17.5097656,19.3930664
			c0,4.8686523,2.1992188,19.394043,17.5097656,19.394043c5.3393555,0,10.5996094-2.9838867,14.2109375-5.9677734
			c0.550293-0.4707031,1.3344727-0.3925781,1.7280273,0.1572266l4.0024414,5.0249023
			c0.4726562,0.5493164,0.394043,1.3354492-0.1552734,1.8056641c-5.1044922,4.8676758-11.3847656,7.8520508-19.7861328,7.8520508
			c-20.9633789,0-27.246582-16.4882812-27.246582-28.2661133c0-11.4624023,6.2832031-28.1870117,27.246582-28.1870117
			c8.8720703,0,14.9956055,3.3759766,20.0205078,8.6362305C278.8125,285.5,278.8125,286.284668,278.2626953,286.7563477
			L273.7104492,291.1523438z"/>
		<path fill="#010101" d="M305.2739258,309.2890625v14.1328125h25.9121094c0.7055664,0,1.2553711,0.5498047,1.2553711,1.2568359
			v6.1240234c0,0.706543-0.5498047,1.2558594-1.2553711,1.2558594h-34.2338867
			c-0.7060547,0-1.2553711-0.5493164-1.2553711-1.2558594v-52.4482422c0-0.7070312,0.5493164-1.2558594,1.2553711-1.2558594
			h34.2338867c0.7055664,0,1.2553711,0.5488281,1.2553711,1.2558594v6.1240234c0,0.7070312-0.5498047,1.2568359-1.2553711,1.2568359
			h-25.9121094v14.9169922h20.0229492c0.7060547,0,1.2553711,0.5498047,1.2553711,1.2563477v6.1240234
			c0,0.7070312-0.5493164,1.2563477-1.2553711,1.2563477H305.2739258z"/>
		<path fill="#010101" d="M350.1870117,332.0585938c-0.7050781,0-1.2553711-0.5493164-1.2553711-1.2558594v-53.3120117
			c0-0.5498047,0.4707031-1.0209961,0.9414062-1.0209961c0.628418,0,1.2568359,0.2358398,1.7275391,0.706543l32.5834961,33.1337891
			v-31.9555664c0-0.7070312,0.5493164-1.2558594,1.2573242-1.2558594h7.1435547
			c0.7080078,0,1.2578125,0.5488281,1.2578125,1.2558594v53.3896484c0,0.5498047-0.4726562,1.0214844-1.0991211,1.0214844
			c-0.6289062,0-1.2573242-0.2353516-1.7280273-0.784668l-32.4272461-33.7631836v32.5849609
			c0,0.706543-0.5498047,1.2558594-1.2548828,1.2558594H350.1870117z"/>
		<path fill="#010101" d="M423.7573242,285.7353516h-14.1313477c-0.7055664,0-1.2553711-0.5498047-1.2553711-1.2568359v-6.1240234
			c0-0.7070312,0.5498047-1.2558594,1.2553711-1.2558594h38.0800781c0.7060547,0,1.2553711,0.5488281,1.2553711,1.2558594v6.1240234
			c0,0.7070312-0.5493164,1.2568359-1.2553711,1.2568359h-14.2900391v45.0673828
			c0,0.706543-0.5493164,1.2558594-1.2568359,1.2558594h-7.1445312c-0.7050781,0-1.2573242-0.5493164-1.2573242-1.2558594
			V285.7353516z"/>
		<path fill="#010101" d="M473.8535156,309.2890625v14.1328125h25.9101562c0.7055664,0,1.2578125,0.5498047,1.2578125,1.2568359
			v6.1240234c0,0.706543-0.5522461,1.2558594-1.2578125,1.2558594h-34.2314453
			c-0.7084961,0-1.2578125-0.5493164-1.2578125-1.2558594v-52.4482422c0-0.7070312,0.5493164-1.2558594,1.2578125-1.2558594
			h34.2314453c0.7055664,0,1.2578125,0.5488281,1.2578125,1.2558594v6.1240234c0,0.7070312-0.5522461,1.2568359-1.2578125,1.2568359
			h-25.9101562v14.9169922H493.875c0.7080078,0,1.2568359,0.5498047,1.2568359,1.2563477v6.1240234
			c0,0.7070312-0.5488281,1.2563477-1.2568359,1.2563477H473.8535156z"/>
		<path fill="#010101" d="M527.0097656,330.8027344c0,0.706543-0.5493164,1.2558594-1.2548828,1.2558594h-6.9882812
			c-0.7075195,0-1.2568359-0.5493164-1.2568359-1.2558594v-52.4482422c0-0.7070312,0.5493164-1.2558594,1.2568359-1.2558594
			h19.3134766c14.9189453,0,19.394043,10.362793,19.394043,17.5078125c0,8.0087891-5.1811523,13.8984375-11.5429688,16.4106445
			c2.90625,6.2817383,6.4384766,13.6616211,9.3447266,19.9423828c0.2353516,0.4716797-0.1582031,1.0991211-0.7075195,1.0991211
			H546.71875c-0.7875977,0-1.4926758-0.4716797-1.8071289-1.0991211l-8.7163086-18.6079102h-9.1855469V330.8027344z
			 M547.8183594,294.6064453c0-3.0620117-1.6518555-8.9506836-9.3447266-8.9506836h-11.4638672v17.9018555h11.777832
			C546.1665039,303.4003906,547.8183594,297.4331055,547.8183594,294.6064453z"/>
		<path fill="#010101" d="M116.3618164,415.0268555h19.0004883c0.7055664,0,1.2553711,0.550293,1.2553711,1.2568359v6.1240234
			c0,0.706543-0.5498047,1.2563477-1.2553711,1.2563477h-27.4018555c-0.706543,0-1.2578125-0.5498047-1.2578125-1.2563477
			v-52.4482422c0-0.7070312,0.5512695-1.2563477,1.2578125-1.2563477h7.1435547
			c0.7084961,0,1.2578125,0.5493164,1.2578125,1.2563477V415.0268555z"/>
		<path fill="#010101" d="M201.2373047,396.1044922c0,11.777832-6.2802734,28.2666016-27.1665039,28.2666016
			c-20.9624023,0-27.2446289-16.4887695-27.2446289-28.2666016c0-11.4624023,6.2822266-28.1870117,27.2446289-28.1870117
			C194.9570312,367.9174805,201.2373047,384.6420898,201.2373047,396.1044922z M191.421875,396.1044922
			c0-4.8681641-2.1977539-19.3935547-17.3510742-19.3935547c-15.3110352,0-17.5092773,14.5253906-17.5092773,19.3935547
			c0,4.8691406,2.1982422,19.550293,17.5092773,19.550293C189.2241211,415.6547852,191.421875,400.9736328,191.421875,396.1044922z"
			/>
		<path fill="#010101" d="M227.3842773,422.4077148c0,0.706543-0.5493164,1.2563477-1.2548828,1.2563477h-7.1464844
			c-0.7055664,0-1.2548828-0.5498047-1.2548828-1.2563477v-52.4482422c0-0.7070312,0.5493164-1.2563477,1.2548828-1.2563477
			h19.4736328c14.9165039,0,19.3920898,10.3632812,19.3920898,17.5083008c0,10.6787109-9.421875,17.7451172-18.2929688,17.7451172
			h-12.1713867V422.4077148z M248.1923828,386.2114258c0-3.0620117-1.6489258-8.9506836-9.3447266-8.9506836h-11.4633789v17.9018555
			h11.777832C246.543457,395.0048828,248.1923828,389.0385742,248.1923828,386.2114258z"/>
		<path fill="#010101" d="M283.9960938,422.4077148c0,0.706543-0.5498047,1.2563477-1.2548828,1.2563477h-7.1469727
			c-0.7050781,0-1.2548828-0.5498047-1.2548828-1.2563477v-52.4482422c0-0.7070312,0.5498047-1.2563477,1.2548828-1.2563477
			h19.4711914c14.9189453,0,19.3945312,10.3632812,19.3945312,17.5083008c0,10.6787109-9.4208984,17.7451172-18.2954102,17.7451172
			h-12.168457V422.4077148z M304.8037109,386.2114258c0-3.0620117-1.6513672-8.9506836-9.3442383-8.9506836h-11.4633789v17.9018555
			h11.777832C303.1523438,395.0048828,304.8037109,389.0385742,304.8037109,386.2114258z"/>
		<path fill="#010101" d="M340.5283203,400.8945312v14.1323242h25.9121094c0.7050781,0,1.2548828,0.550293,1.2548828,1.2568359
			v6.1240234c0,0.706543-0.5498047,1.2563477-1.2548828,1.2563477h-34.234375c-0.7055664,0-1.2548828-0.5498047-1.2548828-1.2563477
			v-52.4482422c0-0.7070312,0.5493164-1.2563477,1.2548828-1.2563477h34.234375
			c0.7050781,0,1.2548828,0.5493164,1.2548828,1.2563477v6.1245117c0,0.7070312-0.5498047,1.2558594-1.2548828,1.2558594
			h-25.9121094v14.9179688h20.0234375c0.7050781,0,1.2543945,0.5493164,1.2543945,1.2558594v6.1245117
			c0,0.706543-0.5493164,1.2563477-1.2543945,1.2563477H340.5283203z"/>
		<path fill="#010101" d="M399.6523438,389.2734375l-10.2851562,33.2124023
			c-0.2353516,0.706543-0.9433594,1.1782227-1.6484375,1.1782227h-7.7724609c-0.6289062,0-1.0224609-0.6274414-0.8642578-1.1782227
			l17.9018555-53.3901367c0.2353516-0.706543,0.8642578-1.1782227,1.5698242-1.1782227
			c0.7841797,0,1.4130859,0.4716797,1.7275391,1.0986328l15.4682617,34.9404297l15.4658203-34.9404297
			c0.2353516-0.6269531,0.9438477-1.0986328,1.6489258-1.0986328c0.7851562,0,1.4130859,0.4716797,1.6484375,1.1782227
			l17.9018555,53.3901367c0.1582031,0.5507812-0.2353516,1.1782227-0.8637695,1.1782227h-7.7724609
			c-0.784668,0-1.4135742-0.4716797-1.6489258-1.1782227l-10.284668-33.2124023l-14.9956055,34.5478516
			c-0.1591797,0.3920898-0.6293945,0.706543-1.0996094,0.706543c-0.4731445,0-0.9428711-0.3144531-1.0991211-0.706543
			L399.6523438,389.2734375z"/>
	</g>
	<g>
		<path fill="#010101" d="M17.4467773,473.7231445v7.4765625c0,0.2514648-0.1889648,0.4389648-0.4394531,0.4389648h-1.0991211
			c-0.2519531,0-0.4399414-0.1875-0.4399414-0.4389648v-21.1708984c0-0.2509766,0.1879883-0.4399414,0.4399414-0.4399414h1.0991211
			c0.2504883,0,0.4394531,0.1889648,0.4394531,0.4399414v13.1918945l7.5708008-6.9726562
			c0.1879883-0.2192383,0.4702148-0.3139648,0.7539062-0.3139648h1.8837891c0.1572266,0,0.2197266,0.1879883,0.1254883,0.3139648
			l-7.8828125,7.2250977l8.3222656,7.8515625c0.0942383,0.1264648,0.0317383,0.3139648-0.1254883,0.3139648h-1.7583008
			c-0.2836914,0-0.5649414-0.0942383-0.7543945-0.3139648L17.4467773,473.7231445z"/>
		<path fill="#010101" d="M34.8461914,460.4379883c0.722168,0,1.3188477,0.5961914,1.3188477,1.3183594
			c0,0.7216797-0.5966797,1.2880859-1.3188477,1.2880859c-0.753418,0-1.2880859-0.5664062-1.2880859-1.2880859
			C33.5581055,461.0341797,34.0927734,460.4379883,34.8461914,460.4379883z M35.7880859,481.2294922
			c0,0.2519531-0.1875,0.4418945-0.4394531,0.4418945h-1.0683594c-0.2504883,0-0.4399414-0.1899414-0.4399414-0.4418945v-14.855957
			c0-0.2514648,0.1894531-0.4394531,0.4399414-0.4394531h1.0683594c0.2519531,0,0.4394531,0.1879883,0.4394531,0.4394531
			V481.2294922z"/>
		<path fill="#010101" d="M44.7084961,481.199707c0,0.2514648-0.1894531,0.4389648-0.4394531,0.4389648h-1.0683594
			c-0.2519531,0-0.4394531-0.1875-0.4394531-0.4389648v-14.8261719c0-0.2514648,0.1875-0.4394531,0.4394531-0.4394531h0.1557617
			c0.2529297,0,0.4726562,0.1879883,0.5341797,0.4394531l0.378418,1.8530273
			c1.8208008-1.9477539,3.8935547-2.5439453,5.559082-2.5439453c5.7163086,0,6.5024414,4.1777344,6.5024414,7.8530273v7.6640625
			c0,0.2514648-0.1889648,0.4389648-0.4399414,0.4389648h-1.1005859c-0.2514648,0-0.4394531-0.1875-0.4394531-0.4389648v-7.6333008
			c0-1.8842773,0.1264648-6.1865234-4.6796875-6.1865234c-2.199707,0-4.3032227,1.5380859-4.9624023,2.637207V481.199707z"/>
		<path fill="#010101" d="M75.0795898,479.4091797c0.1567383,0.1875,0.1264648,0.4716797-0.0629883,0.6279297
			c-1.6020508,1.3193359-3.2358398,1.8535156-5.5283203,1.8535156c-6.0307617,0-7.8212891-4.7744141-7.8212891-8.1674805
			c0-3.296875,1.7905273-8.1342773,7.8212891-8.1342773c3.9897461,0,6.1879883,2.6069336,6.1879883,6.5957031
			c0,0.3144531-0.0307617,0.7539062-0.0625,1.1621094c0,0.2514648-0.2202148,0.4389648-0.4716797,0.4389648H63.5839844
			c0.1254883,2.4516602,1.4750977,6.5649414,5.9042969,6.5649414c1.7587891,0,3.3305664-0.5341797,4.6176758-1.4438477
			c0.1875-0.1567383,0.4711914-0.1264648,0.6274414,0.0625L75.0795898,479.4091797z M63.6147461,472.3725586h10.1777344
			c0.28125-2.2612305-0.7236328-5.0571289-4.3349609-5.1821289
			C65.7197266,467.1904297,64.1796875,469.9228516,63.6147461,472.3725586z"/>
		<path fill="#010101" d="M91.5986328,477.7436523c0,2.5136719-2.387207,4.2407227-5.5273438,4.2407227
			c-2.0732422,0-3.5810547-0.4399414-5.152832-1.1938477c-0.2197266-0.1254883-0.28125-0.4077148-0.1879883-0.6279297
			l0.2827148-0.5336914c0.0947266-0.2197266,0.3779297-0.3144531,0.5981445-0.2197266
			c1.3183594,0.5966797,2.7001953,1.0683594,4.2705078,1.0683594c1.9477539,0,3.7700195-1.0058594,3.7700195-2.7016602
			c0-4.5229492-9.078125-2.4819336-9.078125-7.8837891c0-2.6391602,2.1367188-4.2094727,4.8046875-4.2094727
			c0.8486328,0,2.6708984,0.0942383,4.8066406,0.9736328c0.2197266,0.0625,0.3144531,0.3461914,0.2197266,0.565918
			l-0.2197266,0.5024414c-0.1254883,0.2197266-0.3769531,0.3447266-0.597168,0.2519531
			c-1.1611328-0.4091797-2.574707-0.7861328-3.5805664-0.7861328c-1.8837891,0-3.4555664,0.5341797-3.6435547,2.5126953
			C82.3637695,473.7548828,91.5986328,471.8398438,91.5986328,477.7436523z"/>
		<path fill="#010101" d="M98.8535156,460.4379883c0.7216797,0,1.3188477,0.5961914,1.3188477,1.3183594
			c0,0.7216797-0.597168,1.2880859-1.3188477,1.2880859c-0.7539062,0-1.2880859-0.5664062-1.2880859-1.2880859
			C97.5654297,461.0341797,98.0996094,460.4379883,98.8535156,460.4379883z M99.7954102,481.2294922
			c0,0.2519531-0.1879883,0.4418945-0.440918,0.4418945h-1.0668945c-0.2519531,0-0.4399414-0.1899414-0.4399414-0.4418945
			v-14.855957c0-0.2514648,0.1879883-0.4394531,0.4399414-0.4394531h1.0668945c0.2529297,0,0.440918,0.1879883,0.440918,0.4394531
			V481.2294922z"/>
		<path fill="#010101" d="M105.7939453,467.3154297c-0.2514648,0-0.4404297-0.1879883-0.4404297-0.4399414v-0.5019531
			c0-0.2514648,0.1889648-0.4394531,0.4404297-0.4394531h1.6650391l0.1884766-2.7324219
			c0.0317383-0.2514648,0.2197266-0.4399414,0.4716797-0.4399414h0.8789062c0.2504883,0,0.4394531,0.1884766,0.4394531,0.4399414
			v2.7324219h3.109375c0.2519531,0,0.4399414,0.1879883,0.4399414,0.4394531v0.5019531
			c0,0.2519531-0.1879883,0.4399414-0.4399414,0.4399414H109.4375v10.3657227c0,1.4448242,0.4091797,2.6386719,2.3237305,2.6386719
			c0.4086914,0,0.8481445-0.0625,1.3520508-0.1889648c0.2504883-0.0625,0.4702148,0.0947266,0.5019531,0.3466797l0.09375,0.4077148
			c0.03125,0.2509766-0.1254883,0.5019531-0.3452148,0.565918c-0.8168945,0.2504883-1.6025391,0.3754883-2.3554688,0.3754883
			c-1.9477539,0-3.4555664-0.972168-3.5493164-3.6743164v-10.8369141H105.7939453z"/>
		<path fill="#010101" d="M119.0786133,481.6386719c-0.2514648,0-0.4394531-0.1875-0.4394531-0.4389648v-21.1391602
			c0-0.2519531,0.1879883-0.4394531,0.4394531-0.4394531h1.0688477c0.25,0,0.4389648,0.1875,0.4389648,0.4394531v7.5693359
			c1.2885742-1.2885742,3.2348633-1.9472656,5.3398438-1.9472656c5.4335938,0,6.3129883,4.2402344,6.3129883,7.8530273v7.6640625
			c0,0.2514648-0.1889648,0.4389648-0.4394531,0.4389648h-1.0366211c-0.2519531,0-0.4394531-0.1875-0.4394531-0.4389648v-7.6640625
			c0-4.8066406-1.7905273-6.3134766-4.5551758-6.3134766c-1.7275391,0-3.9267578,0.8168945-5.1821289,2.512207v11.465332
			c0,0.2514648-0.1889648,0.4389648-0.4389648,0.4389648H119.0786133z"/>
		<path fill="#010101" d="M150.9897461,479.4091797c0.1572266,0.1875,0.125,0.4716797-0.0625,0.6279297
			c-1.6015625,1.3193359-3.234375,1.8535156-5.5288086,1.8535156c-6.0302734,0-7.8212891-4.7744141-7.8212891-8.1674805
			c0-3.296875,1.7910156-8.1342773,7.8212891-8.1342773c3.9887695,0,6.1879883,2.6069336,6.1879883,6.5957031
			c0,0.3144531-0.0317383,0.7539062-0.0625,1.1621094c0,0.2514648-0.2202148,0.4389648-0.4716797,0.4389648h-11.559082
			c0.1264648,2.4516602,1.4770508,6.5649414,5.9052734,6.5649414c1.7597656,0,3.3291016-0.5341797,4.6176758-1.4438477
			c0.1889648-0.1567383,0.4711914-0.1264648,0.6289062,0.0625L150.9897461,479.4091797z M139.5249023,472.3725586h10.1762695
			c0.2841797-2.2612305-0.7216797-5.0571289-4.3344727-5.1821289
			C141.6298828,467.1904297,140.0913086,469.9228516,139.5249023,472.3725586z"/>
		<path fill="#010101" d="M165.1855469,467.0332031c-0.0639648,0.2514648-0.2841797,0.4091797-0.534668,0.3769531
			c-0.2197266,0-0.4711914-0.0302734-0.6591797-0.0302734c-2.199707,0-4.3041992,1.5380859-4.9638672,2.637207v11.1826172
			c0,0.2514648-0.1889648,0.4389648-0.4394531,0.4389648h-1.0683594c-0.2504883,0-0.4394531-0.1875-0.4394531-0.4389648v-14.8261719
			c0-0.2514648,0.1889648-0.4394531,0.4394531-0.4394531h0.1577148c0.2514648,0,0.4711914,0.1879883,0.5336914,0.4394531
			l0.3769531,1.8530273c1.8222656-1.9477539,3.8950195-2.5439453,5.559082-2.5439453c0.3144531,0,0.5986328,0,0.8486328,0.03125
			c0.2504883,0.03125,0.4091797,0.2519531,0.3452148,0.5024414L165.1855469,467.0332031z"/>
		<path fill="#010101" d="M170.9643555,467.3798828c-0.0947266-0.2216797,0-0.4716797,0.2504883-0.5976562
			c1.4438477-0.5966797,3.0776367-1.0996094,4.6494141-1.0996094c5.434082,0,5.8095703,3.2666016,5.8095703,6.4072266v9.1098633
			c0,0.2514648-0.1879883,0.4389648-0.4399414,0.4389648h-0.1875c-0.2519531,0-0.472168-0.1875-0.534668-0.4389648
			l-0.3461914-1.7280273c-1.7260742,2.0727539-3.9882812,2.4189453-5.3076172,2.4189453
			c-5.0258789,0-5.340332-3.3925781-5.340332-4.8061523c0-3.9262695,3.2358398-4.9946289,6.4077148-4.9946289
			c0.9741211,0,2.8911133,0.1894531,3.7705078,0.4091797v-0.565918c0-4.1137695-1.5390625-4.7109375-4.0834961-4.6484375
			c-1.1308594,0.0307617-2.324707,0.4077148-3.8955078,0.9741211c-0.2197266,0.0927734-0.4711914-0.0322266-0.5644531-0.2519531
			L170.9643555,467.3798828z M179.6958008,474.1318359c-0.9116211-0.2509766-2.0429688-0.4711914-3.2666016-0.4711914
			c-2.418457,0-5.0571289,0.4399414-5.0571289,3.3925781c0,2.1362305,1.5708008,3.2666016,3.5795898,3.2666016
			c2.0742188,0,4.0844727-1.4448242,4.7441406-2.6386719V474.1318359z"/>
		<path fill="#010101" d="M190.2158203,480.4453125v7.0361328c0,0.2509766-0.1879883,0.4399414-0.4394531,0.4399414h-1.0673828
			c-0.2514648,0-0.4394531-0.1889648-0.4394531-0.4399414v-21.1079102c0-0.2514648,0.1879883-0.4394531,0.4394531-0.4394531
			h0.1879883c0.2519531,0,0.4711914,0.1879883,0.5341797,0.4394531l0.3452148,1.7905273
			c1.8525391-2.1049805,4.0200195-2.4814453,5.5917969-2.4814453c5.7797852,0,7.6323242,4.7114258,7.6323242,8.0722656
			c0,3.2041016-1.7275391,7.8520508-7.3813477,8.1044922h-0.8798828
			C193.3569336,481.7963867,191.8183594,481.4511719,190.2158203,480.4453125z M190.2158203,469.8295898v8.8251953
			c1.1000977,0.9418945,3.3300781,1.6650391,4.6796875,1.6650391c5.152832,0,6.1269531-4.5541992,6.1269531-6.5649414
			c0-1.7275391-0.7231445-6.3447266-5.8432617-6.3447266C192.9174805,467.4101562,191.0336914,468.6982422,190.2158203,469.8295898z
			"/>
		<path fill="#010101" d="M210.2539062,460.4379883c0.722168,0,1.3188477,0.5961914,1.3188477,1.3183594
			c0,0.7216797-0.5966797,1.2880859-1.3188477,1.2880859c-0.7539062,0-1.2875977-0.5664062-1.2875977-1.2880859
			C208.9663086,461.0341797,209.5,460.4379883,210.2539062,460.4379883z M211.1962891,481.2294922
			c0,0.2519531-0.1879883,0.4418945-0.440918,0.4418945h-1.0668945c-0.2519531,0-0.4399414-0.1899414-0.4399414-0.4418945
			v-14.855957c0-0.2514648,0.1879883-0.4394531,0.4399414-0.4394531h1.0668945c0.2529297,0,0.440918,0.1879883,0.440918,0.4394531
			V481.2294922z"/>
		<path fill="#010101" d="M230.9521484,479.4091797c0.1577148,0.1875,0.1254883,0.4716797-0.0625,0.6279297
			c-1.6015625,1.3193359-3.234375,1.8535156-5.5288086,1.8535156c-6.0302734,0-7.8208008-4.7744141-7.8208008-8.1674805
			c0-3.296875,1.7905273-8.1342773,7.8208008-8.1342773c3.9887695,0,6.1884766,2.6069336,6.1884766,6.5957031
			c0,0.3144531-0.0322266,0.7539062-0.0629883,1.1621094c0,0.2514648-0.2197266,0.4389648-0.4711914,0.4389648h-11.5595703
			c0.1264648,2.4516602,1.4770508,6.5649414,5.9052734,6.5649414c1.7602539,0,3.3295898-0.5341797,4.6176758-1.4438477
			c0.1889648-0.1567383,0.4716797-0.1264648,0.6293945,0.0625L230.9521484,479.4091797z M219.4873047,472.3725586h10.1767578
			c0.2836914-2.2612305-0.722168-5.0571289-4.3349609-5.1821289
			C221.5922852,467.1904297,220.0537109,469.9228516,219.4873047,472.3725586z"/>
		<path fill="#010101" d="M260.8193359,479.4091797c0.1577148,0.1875,0.1269531,0.4716797-0.0620117,0.6279297
			c-1.6030273,1.3193359-3.2358398,1.8535156-5.5283203,1.8535156c-6.03125,0-7.8212891-4.7744141-7.8212891-8.1674805
			c0-3.296875,1.7900391-8.1342773,7.8212891-8.1342773c3.9897461,0,6.1879883,2.6069336,6.1879883,6.5957031
			c0,0.3144531-0.0307617,0.7539062-0.0634766,1.1621094c0,0.2514648-0.21875,0.4389648-0.4711914,0.4389648h-11.5581055
			c0.125,2.4516602,1.4750977,6.5649414,5.9047852,6.5649414c1.7583008,0,3.3305664-0.5341797,4.6171875-1.4438477
			c0.1879883-0.1567383,0.4711914-0.1264648,0.6274414,0.0625L260.8193359,479.4091797z M249.3554688,472.3725586h10.1777344
			c0.28125-2.2612305-0.7236328-5.0571289-4.3349609-5.1821289
			C251.4599609,467.1904297,249.9199219,469.9228516,249.3554688,472.3725586z"/>
		<path fill="#010101" d="M268.859375,481.199707c0,0.2514648-0.1889648,0.4389648-0.4399414,0.4389648h-1.0683594
			c-0.25,0-0.4389648-0.1875-0.4389648-0.4389648v-14.8261719c0-0.2514648,0.1889648-0.4394531,0.4389648-0.4394531h0.1577148
			c0.2514648,0,0.4716797,0.1879883,0.5341797,0.4394531l0.3764648,1.8530273
			c1.8227539-1.9477539,3.8950195-2.5439453,5.5595703-2.5439453c5.7172852,0,6.5029297,4.1777344,6.5029297,7.8530273v7.6640625
			c0,0.2514648-0.1899414,0.4389648-0.4399414,0.4389648h-1.0986328c-0.2524414,0-0.4404297-0.1875-0.4404297-0.4389648v-7.6333008
			c0-1.8842773,0.125-6.1865234-4.6796875-6.1865234c-2.1992188,0-4.3041992,1.5380859-4.9638672,2.637207V481.199707z"/>
		<path fill="#010101" d="M307.8671875,477.7436523c0,2.5136719-2.3876953,4.2407227-5.5283203,4.2407227
			c-2.0727539,0-3.5795898-0.4399414-5.1503906-1.1938477c-0.2197266-0.1254883-0.2841797-0.4077148-0.1889648-0.6279297
			l0.2827148-0.5336914c0.09375-0.2197266,0.3759766-0.3144531,0.5961914-0.2197266
			c1.3203125,0.5966797,2.7016602,1.0683594,4.2729492,1.0683594c1.9472656,0,3.7680664-1.0058594,3.7680664-2.7016602
			c0-4.5229492-9.0776367-2.4819336-9.0776367-7.8837891c0-2.6391602,2.1367188-4.2094727,4.8066406-4.2094727
			c0.847168,0,2.6694336,0.0942383,4.8051758,0.9736328c0.2202148,0.0625,0.3139648,0.3461914,0.2202148,0.565918
			l-0.2202148,0.5024414c-0.125,0.2197266-0.3764648,0.3447266-0.597168,0.2519531
			c-1.1611328-0.4091797-2.574707-0.7861328-3.5800781-0.7861328c-1.8842773,0-3.4545898,0.5341797-3.644043,2.5126953
			C298.6323242,473.7548828,307.8671875,471.8398438,307.8671875,477.7436523z"/>
		<path fill="#010101" d="M315.7802734,480.4453125v7.0361328c0,0.2509766-0.1875,0.4399414-0.4394531,0.4399414h-1.0683594
			c-0.2504883,0-0.4394531-0.1889648-0.4394531-0.4399414v-21.1079102c0-0.2514648,0.1889648-0.4394531,0.4394531-0.4394531
			h0.1889648c0.2504883,0,0.4702148,0.1879883,0.5341797,0.4394531l0.3452148,1.7905273
			c1.8530273-2.1049805,4.0205078-2.4814453,5.5908203-2.4814453c5.7792969,0,7.6323242,4.7114258,7.6323242,8.0722656
			c0,3.2041016-1.7270508,7.8520508-7.3803711,8.1044922h-0.8808594
			C318.9213867,481.7963867,317.3828125,481.4511719,315.7802734,480.4453125z M315.7802734,469.8295898v8.8251953
			c1.0991211,0.9418945,3.3291016,1.6650391,4.6801758,1.6650391c5.1518555,0,6.1254883-4.5541992,6.1254883-6.5649414
			c0-1.7275391-0.7226562-6.3447266-5.8427734-6.3447266C318.4819336,467.4101562,316.5966797,468.6982422,315.7802734,469.8295898z
			"/>
		<path fill="#010101" d="M349.5454102,473.7856445c0,3.3930664-1.7905273,8.1987305-7.8208008,8.1987305
			c-6.03125,0-7.8212891-4.8056641-7.8212891-8.1987305c0-3.2963867,1.7900391-8.1030273,7.8212891-8.1030273
			C347.7548828,465.6826172,349.5454102,470.4892578,349.5454102,473.7856445z M347.6289062,473.7856445
			c0-1.5385742-0.784668-6.3754883-5.9042969-6.3754883c-5.1206055,0-5.8735352,4.8369141-5.8735352,6.3754883
			c0,1.5400391,0.7529297,6.5024414,5.8735352,6.5024414C346.8442383,480.2880859,347.6289062,475.230957,347.6289062,473.7856445z"
			/>
		<path fill="#010101" d="M363.6147461,467.0332031c-0.0625,0.2514648-0.2822266,0.4091797-0.5327148,0.3769531
			c-0.2197266,0-0.4716797-0.0302734-0.6606445-0.0302734c-2.1982422,0-4.3032227,1.5380859-4.9624023,2.637207v11.1826172
			c0,0.2514648-0.1884766,0.4389648-0.4399414,0.4389648h-1.0678711c-0.2509766,0-0.4394531-0.1875-0.4394531-0.4389648v-14.8261719
			c0-0.2514648,0.1884766-0.4394531,0.4394531-0.4394531h0.1567383c0.2514648,0,0.4716797,0.1879883,0.5341797,0.4394531
			l0.3769531,1.8530273c1.8227539-1.9477539,3.8955078-2.5439453,5.559082-2.5439453c0.3149414,0,0.597168,0,0.8491211,0.03125
			c0.2509766,0.03125,0.4072266,0.2519531,0.3447266,0.5024414L363.6147461,467.0332031z"/>
		<path fill="#010101" d="M368.8598633,467.3154297c-0.2504883,0-0.4399414-0.1879883-0.4399414-0.4399414v-0.5019531
			c0-0.2514648,0.1894531-0.4394531,0.4399414-0.4394531h1.6645508l0.1879883-2.7324219
			c0.0322266-0.2514648,0.2202148-0.4399414,0.4716797-0.4399414h0.8793945c0.2519531,0,0.4394531,0.1884766,0.4394531,0.4399414
			v2.7324219h3.1108398c0.2504883,0,0.4394531,0.1879883,0.4394531,0.4394531v0.5019531
			c0,0.2519531-0.1889648,0.4399414-0.4394531,0.4399414h-3.1108398v10.3657227c0,1.4448242,0.4091797,2.6386719,2.324707,2.6386719
			c0.4091797,0,0.8486328-0.0625,1.3505859-0.1889648c0.2519531-0.0625,0.4716797,0.0947266,0.5024414,0.3466797
			l0.0947266,0.4077148c0.0322266,0.2509766-0.1254883,0.5019531-0.3452148,0.565918
			c-0.8164062,0.2504883-1.6025391,0.3754883-2.3564453,0.3754883c-1.9477539,0-3.4541016-0.972168-3.5493164-3.6743164v-10.8369141
			H368.8598633z"/>
		<path fill="#010101" d="M389.8085938,467.0332031c-0.0634766,0.2514648-0.2832031,0.4091797-0.5332031,0.3769531
			c-0.2202148,0-0.4716797-0.0302734-0.6611328-0.0302734c-2.1977539,0-4.3027344,1.5380859-4.9619141,2.637207v11.1826172
			c0,0.2514648-0.1884766,0.4389648-0.4399414,0.4389648h-1.0683594c-0.25,0-0.4394531-0.1875-0.4394531-0.4389648v-14.8261719
			c0-0.2514648,0.1894531-0.4394531,0.4394531-0.4394531h0.1572266c0.2514648,0,0.4716797,0.1879883,0.5341797,0.4394531
			l0.3769531,1.8530273c1.8222656-1.9477539,3.8955078-2.5439453,5.559082-2.5439453c0.3149414,0,0.597168,0,0.8486328,0.03125
			c0.2519531,0.03125,0.4077148,0.2519531,0.3452148,0.5024414L389.8085938,467.0332031z"/>
		<path fill="#010101" d="M407.5556641,479.4091797c0.1557617,0.1875,0.125,0.4716797-0.0644531,0.6279297
			c-1.6010742,1.3193359-3.234375,1.8535156-5.5273438,1.8535156c-6.0307617,0-7.8208008-4.7744141-7.8208008-8.1674805
			c0-3.296875,1.7900391-8.1342773,7.8208008-8.1342773c3.9887695,0,6.1879883,2.6069336,6.1879883,6.5957031
			c0,0.3144531-0.0317383,0.7539062-0.0639648,1.1621094c0,0.2514648-0.2197266,0.4389648-0.4697266,0.4389648h-11.5595703
			c0.125,2.4516602,1.4765625,6.5649414,5.9052734,6.5649414c1.7587891,0,3.3291016-0.5341797,4.6181641-1.4438477
			c0.1875-0.1567383,0.4697266-0.1264648,0.6269531,0.0625L407.5556641,479.4091797z M396.0908203,472.3725586h10.1762695
			c0.2822266-2.2612305-0.7216797-5.0571289-4.3349609-5.1821289
			C398.1938477,467.1904297,396.6552734,469.9228516,396.0908203,472.3725586z"/>
		<path fill="#010101" d="M418.9550781,478.0581055l4.5224609-11.7167969c0.0947266-0.25,0.3461914-0.4072266,0.597168-0.4072266
			h1.2875977c0.2202148,0,0.3452148,0.2197266,0.2827148,0.4072266l-6.1557617,15.1723633
			c-0.0952148,0.2202148-0.3144531,0.3769531-0.5664062,0.3769531c-0.2197266,0-0.4394531-0.1567383-0.5327148-0.3769531
			l-6.1577148-15.1723633c-0.0625-0.1875,0.0629883-0.4072266,0.2822266-0.4072266h1.2890625
			c0.2509766,0,0.5019531,0.1572266,0.5961914,0.4072266L418.9550781,478.0581055z"/>
		<path fill="#010101" d="M431.328125,467.3798828c-0.0932617-0.2216797,0-0.4716797,0.2519531-0.5976562
			c1.4443359-0.5966797,3.0786133-1.0996094,4.6479492-1.0996094c5.434082,0,5.8105469,3.2666016,5.8105469,6.4072266v9.1098633
			c0,0.2514648-0.1875,0.4389648-0.4389648,0.4389648h-0.1884766c-0.2514648,0-0.4711914-0.1875-0.5336914-0.4389648
			l-0.3452148-1.7280273c-1.7280273,2.0727539-3.9902344,2.4189453-5.3085938,2.4189453
			c-5.0268555,0-5.3398438-3.3925781-5.3398438-4.8061523c0-3.9262695,3.234375-4.9946289,6.4077148-4.9946289
			c0.9736328,0,2.8896484,0.1894531,3.7695312,0.4091797v-0.565918c0-4.1137695-1.5390625-4.7109375-4.0834961-4.6484375
			c-1.1308594,0.0307617-2.324707,0.4077148-3.8955078,0.9741211c-0.2197266,0.0927734-0.4716797-0.0322266-0.5644531-0.2519531
			L431.328125,467.3798828z M440.0610352,474.1318359c-0.9116211-0.2509766-2.0424805-0.4711914-3.2670898-0.4711914
			c-2.4189453,0-5.0566406,0.4399414-5.0566406,3.3925781c0,2.1362305,1.5703125,3.2666016,3.5800781,3.2666016
			c2.0732422,0,4.0834961-1.4448242,4.7436523-2.6386719V474.1318359z"/>
		<path fill="#010101" d="M450.8950195,481.199707c0,0.2514648-0.1889648,0.4389648-0.4399414,0.4389648h-1.0683594
			c-0.25,0-0.4394531-0.1875-0.4394531-0.4389648v-21.1708984c0-0.2509766,0.1894531-0.4399414,0.4394531-0.4399414h1.0683594
			c0.2509766,0,0.4399414,0.1889648,0.4399414,0.4399414V481.199707z"/>
		<path fill="#010101" d="M459.0908203,460.4379883c0.722168,0,1.3188477,0.5961914,1.3188477,1.3183594
			c0,0.7216797-0.5966797,1.2880859-1.3188477,1.2880859c-0.7539062,0-1.2885742-0.5664062-1.2885742-1.2880859
			C457.8022461,461.0341797,458.3369141,460.4379883,459.0908203,460.4379883z M460.0322266,481.2294922
			c0,0.2519531-0.1875,0.4418945-0.4389648,0.4418945h-1.0673828c-0.2514648,0-0.440918-0.1899414-0.440918-0.4418945v-14.855957
			c0-0.2514648,0.1894531-0.4394531,0.440918-0.4394531h1.0673828c0.2514648,0,0.4389648,0.1879883,0.4389648,0.4394531V481.2294922
			z"/>
		<path fill="#010101" d="M478.8481445,467.1274414v-7.0361328c0-0.2509766,0.1879883-0.4399414,0.4399414-0.4399414h1.0678711
			c0.2509766,0,0.4399414,0.1889648,0.4399414,0.4399414v21.1083984c0,0.2514648-0.1889648,0.4389648-0.4399414,0.4389648
			h-0.1889648c-0.25,0-0.4702148-0.1875-0.5341797-0.4389648l-0.3447266-1.7905273
			c-1.8535156,2.1044922-4.0209961,2.4814453-5.5913086,2.4814453c-5.7788086,0-7.6318359-4.7119141-7.6318359-8.0722656
			c0-3.2993164,1.8208008-8.1044922,7.8208008-8.1044922C475.3925781,465.7138672,477.0898438,466.0288086,478.8481445,467.1274414z
			 M478.8481445,477.7436523v-8.8256836c-1.0991211-0.9414062-3.3286133-1.6650391-4.6796875-1.6650391
			c-5.1518555,0-6.1254883,4.5541992-6.1254883,6.5654297c0,1.7275391,0.722168,6.3442383,5.8427734,6.3442383
			C476.1464844,480.1625977,478.0317383,478.875,478.8481445,477.7436523z"/>
		<path fill="#010101" d="M488.2070312,467.3798828c-0.09375-0.2216797,0-0.4716797,0.2519531-0.5976562
			c1.4453125-0.5966797,3.078125-1.0996094,4.6474609-1.0996094c5.434082,0,5.8115234,3.2666016,5.8115234,6.4072266v9.1098633
			c0,0.2514648-0.1884766,0.4389648-0.4399414,0.4389648h-0.1875c-0.2524414,0-0.4726562-0.1875-0.5351562-0.4389648
			l-0.3447266-1.7280273c-1.7280273,2.0727539-3.9892578,2.4189453-5.3085938,2.4189453
			c-5.0258789,0-5.3393555-3.3925781-5.3393555-4.8061523c0-3.9262695,3.234375-4.9946289,6.4077148-4.9946289
			c0.9741211,0,2.8896484,0.1894531,3.769043,0.4091797v-0.565918c0-4.1137695-1.5390625-4.7109375-4.0830078-4.6484375
			c-1.1313477,0.0307617-2.3251953,0.4077148-3.8955078,0.9741211c-0.2202148,0.0927734-0.4716797-0.0322266-0.5644531-0.2519531
			L488.2070312,467.3798828z M496.9394531,474.1318359c-0.9116211-0.2509766-2.0429688-0.4711914-3.2666016-0.4711914
			c-2.4194336,0-5.0571289,0.4399414-5.0571289,3.3925781c0,2.1362305,1.5708008,3.2666016,3.5810547,3.2666016
			c2.0727539,0,4.0825195-1.4448242,4.7426758-2.6386719V474.1318359z"/>
		<path fill="#010101" d="M504.5380859,467.3154297c-0.2504883,0-0.4394531-0.1879883-0.4394531-0.4399414v-0.5019531
			c0-0.2514648,0.1889648-0.4394531,0.4394531-0.4394531h1.6650391l0.1879883-2.7324219
			c0.0322266-0.2514648,0.2202148-0.4399414,0.4711914-0.4399414h0.8793945c0.2519531,0,0.4394531,0.1884766,0.4394531,0.4399414
			v2.7324219h3.1113281c0.2504883,0,0.4389648,0.1879883,0.4389648,0.4394531v0.5019531
			c0,0.2519531-0.1884766,0.4399414-0.4389648,0.4399414h-3.1113281v10.3657227
			c0,1.4448242,0.4091797,2.6386719,2.3251953,2.6386719c0.4086914,0,0.8486328-0.0625,1.3510742-0.1889648
			c0.2514648-0.0625,0.4716797,0.0947266,0.5014648,0.3466797l0.0952148,0.4077148
			c0.03125,0.2509766-0.125,0.5019531-0.3452148,0.565918c-0.8164062,0.2504883-1.6025391,0.3754883-2.3569336,0.3754883
			c-1.9472656,0-3.4541016-0.972168-3.5488281-3.6743164v-10.8369141H504.5380859z"/>
		<path fill="#010101" d="M518.6723633,460.4379883c0.722168,0,1.3188477,0.5961914,1.3188477,1.3183594
			c0,0.7216797-0.5966797,1.2880859-1.3188477,1.2880859c-0.753418,0-1.2875977-0.5664062-1.2875977-1.2880859
			C517.3847656,461.0341797,517.9189453,460.4379883,518.6723633,460.4379883z M519.6137695,481.2294922
			c0,0.2519531-0.1875,0.4418945-0.4389648,0.4418945h-1.0673828c-0.2514648,0-0.4414062-0.1899414-0.4414062-0.4418945v-14.855957
			c0-0.2514648,0.1899414-0.4394531,0.4414062-0.4394531h1.0673828c0.2514648,0,0.4389648,0.1879883,0.4389648,0.4394531
			V481.2294922z"/>
		<path fill="#010101" d="M539.3701172,479.4091797c0.15625,0.1875,0.125,0.4716797-0.0634766,0.6279297
			c-1.6015625,1.3193359-3.234375,1.8535156-5.5268555,1.8535156c-6.03125,0-7.8217773-4.7744141-7.8217773-8.1674805
			c0-3.296875,1.7905273-8.1342773,7.8217773-8.1342773c3.9882812,0,6.1875,2.6069336,6.1875,6.5957031
			c0,0.3144531-0.0317383,0.7539062-0.0639648,1.1621094c0,0.2514648-0.2202148,0.4389648-0.4707031,0.4389648h-11.559082
			c0.1254883,2.4516602,1.4760742,6.5649414,5.90625,6.5649414c1.7578125,0,3.3286133-0.5341797,4.6166992-1.4438477
			c0.1879883-0.1567383,0.4707031-0.1264648,0.6274414,0.0625L539.3701172,479.4091797z M527.9057617,472.3725586h10.1762695
			c0.2827148-2.2612305-0.722168-5.0571289-4.3349609-5.1821289
			C530.0097656,467.1904297,528.4707031,469.9228516,527.9057617,472.3725586z"/>
	</g>
	<g>
		<path fill="#010101" d="M351.9301758,160.4765625V62.9960938c0-19.425293-7.7211914-35.6796875-22.331543-47.0058594
			C316.109375,5.5307617,297.1499023-0.1572266,276.2231445,0.003418
			C252.375,0.1904297,231.9379883,7.7587891,218.675293,21.3134766
			c-10.8520508,11.0898438-16.4619141,25.9052734-16.2270508,42.8154297v14.6572266
			c-0.0180664,0.0732422-0.0366211,0.1469727-0.0537109,0.2207031l0.0537109,0.0117188v82.5898438
			c0,19.7421875,7.8964844,38.3349609,22.2373047,52.3510742c14.246582,13.9267578,33.0234375,21.5966797,52.871582,21.5966797
			l0.5981445-0.0029297c19.9980469-0.15625,38.7050781-8.1049805,52.6748047-22.3823242
			C344.7124023,198.9829102,352.2050781,180.2583008,351.9301758,160.4765625z M332.4345703,204.6469727
			c-14.3017578,5.5112305-27.453125,2.6625977-39.1132812-8.4824219c-2.5957031-2.4814453-4.8398438-5.1303711-6.722168-7.6547852
			c5.8325195,5.5581055,14.0668945,11.4780273,23.9609375,13.7216797c2.730957,0.6191406,5.4516602,0.9277344,8.1606445,0.9277344
			c6.1259766,0,12.1855469-1.5834961,18.1333008-4.7314453
			C335.5019531,200.5688477,334.0283203,202.6455078,332.4345703,204.6469727z M221.7817383,204.1230469
			c-1.7011719-2.1401367-3.2641602-4.3632812-4.6850586-6.6567383c6.4970703,3.7871094,13.1381836,5.6928711,19.8569336,5.6928711
			c2.7104492,0,5.434082-0.309082,8.1650391-0.9282227c9.8974609-2.2456055,18.1328125-8.1694336,23.9672852-13.7285156
			c-1.8676758,2.5019531-4.0913086,5.1293945-6.6650391,7.597168
			c-12.0664062,11.5722656-25.7314453,14.2524414-40.6162109,7.9682617L221.7817383,204.1230469z M277.5854492,173.8061523
			c-12.3808594-9.0795898-23.5200195-20.6616211-23.5200195-42.2944336s11.1391602-33.2133789,23.5200195-42.293457
			c12.3798828,9.0810547,23.5185547,20.6630859,23.5185547,42.293457S289.965332,164.7250977,277.5854492,173.8061523z
			 M277.3974609,82.3120117c-12.7246094-9.3652344-21.1083984-19.6225586-21.1083984-38.0756836
			c0-18.4516602,8.3837891-28.7089844,21.1083984-38.0742188c12.7255859,9.3662109,21.1083984,19.6240234,21.1083984,38.0742188
			C298.5058594,62.6870117,290.1230469,72.9453125,277.3974609,82.3120117z M206.8935547,161.6083984V95.637207
			c4.7871094-29.1508789,32.5253906-58.6577148,51.0024414-75.4750977
			c-3.7114258,6.3662109-6.0527344,14.1367188-6.0527344,24.0742188c0,21.3666992,10.7988281,32.734375,22.8427734,41.5981445
			c-13.2211914,9.7392578-25.0654297,22.2314453-25.0654297,45.6772461c0,22.2573242,10.6743164,34.6435547,23.0649414,44.175293
			c-0.7939453,0.6279297-1.7480469,1.3564453-2.8623047,2.1625977c-1.2011719,0.8618164-2.5698242,1.8232422-4.1083984,2.800293
			c-1.5288086,0.9907227-3.2260742,2-5.0507812,3.0102539c-0.9213867,0.4848633-1.8569336,1.0126953-2.84375,1.4799805
			c-0.4912109,0.2407227-0.987793,0.4833984-1.4882812,0.7290039c-0.5078125,0.2275391-1.0219727,0.456543-1.5385742,0.6884766
			c-1.0292969,0.4858398-2.112793,0.8671875-3.1904297,1.3149414c-0.5454102,0.2045898-1.1000977,0.3876953-1.6552734,0.5849609
			c-0.5541992,0.1928711-1.1103516,0.3999023-1.6816406,0.5556641c-0.5668945,0.1674805-1.1376953,0.3364258-1.7080078,0.5058594
			c-0.5712891,0.175293-1.1572266,0.2856445-1.7373047,0.4331055c-1.1591797,0.3071289-2.3398438,0.4941406-3.5195312,0.7041016
			c-0.5878906,0.1235352-1.1835938,0.1601562-1.7768555,0.2333984c-0.5922852,0.0576172-1.1855469,0.1489258-1.7788086,0.1821289
			c-0.5917969,0.0234375-1.1831055,0.0473633-1.7734375,0.0708008c-0.2954102,0.0097656-0.590332,0.0307617-0.8852539,0.0307617
			l-0.878418-0.0327148c-0.5849609-0.0209961-1.168457-0.0419922-1.7495117-0.0625
			c-0.5761719-0.0498047-1.1479492-0.1328125-1.7177734-0.1962891c-1.1474609-0.0908203-2.2460938-0.362793-3.3393555-0.5859375
			c-0.2719727-0.0605469-0.5478516-0.1035156-0.8139648-0.1782227c-0.2626953-0.081543-0.5263672-0.1621094-0.7885742-0.2426758
			c-0.5234375-0.1606445-1.0424805-0.3193359-1.5551758-0.4760742l-0.3842773-0.1176758l-0.3696289-0.1533203
			c-0.2451172-0.1015625-0.4897461-0.203125-0.7324219-0.3037109c-0.4853516-0.2001953-0.9663086-0.3984375-1.4404297-0.5947266
			c-0.9282227-0.4321289-1.7939453-0.9375-2.6567383-1.3793945c-0.4394531-0.2080078-0.8188477-0.5004883-1.2138672-0.7524414
			c-0.3916016-0.2583008-0.7753906-0.5117188-1.1518555-0.7597656c-0.7739258-0.4667969-1.4272461-1.0415039-2.0732422-1.5551758
			c-0.3222656-0.2583008-0.6357422-0.5102539-0.9414062-0.7548828c-0.1518555-0.1230469-0.3027344-0.2431641-0.4506836-0.3623047
			c-0.1445312-0.1245117-0.2739258-0.2612305-0.4082031-0.3876953c-0.5327148-0.5126953-1.03125-0.9936523-1.4907227-1.4375
			c-0.4628906-0.4448242-0.8964844-0.8442383-1.2324219-1.2602539c-0.2070312-0.2382812-0.3984375-0.4560547-0.5786133-0.6625977
			C207.6523438,173.3261719,206.8935547,167.5224609,206.8935547,161.6083984z M206.8935547,82.5673828v-7.5668945
			c6.4506836-21.3862305,23.1245117-38.3681641,36.4580078-49.1147461
			c5.581543-4.4985352,11.0234375-8.2817383,15.7246094-11.293457
			c-5.3466797,4.7055664-11.7612305,10.6860352-18.2783203,17.5522461
			C223.8496094,49.9960938,212.4970703,66.8964844,206.8935547,82.5673828z M211.1132812,184.5351562
			c0.152832,0.1333008,0.3076172,0.269043,0.4638672,0.4067383c0.3144531,0.2749023,0.6376953,0.5585938,0.96875,0.8486328
			c0.6679688,0.5771484,1.3427734,1.2177734,2.152832,1.7583008c0.394043,0.2851562,0.7963867,0.5756836,1.206543,0.8720703
			c0.4155273,0.2890625,0.8154297,0.6196289,1.2807617,0.8671875c0.9125977,0.5214844,1.8325195,1.1083984,2.828125,1.6225586
			c0.5073242,0.2368164,1.0239258,0.4760742,1.5458984,0.7182617c0.262207,0.1210938,0.5258789,0.2426758,0.7905273,0.3647461
			l0.3969727,0.184082l0.4169922,0.1484375c0.5556641,0.1958008,1.1181641,0.3955078,1.6870117,0.5961914
			c0.2832031,0.0996094,0.5698242,0.199707,0.8569336,0.3007812c0.2890625,0.0947266,0.5893555,0.1557617,0.8847656,0.2358398
			c1.1894531,0.2978516,2.3964844,0.6425781,3.6508789,0.8007812c0.6240234,0.0966797,1.2514648,0.2119141,1.8842773,0.2929688
			c0.6357422,0.0498047,1.2749023,0.1000977,1.9165039,0.1513672l0.9663086,0.0742188
			c0.3217773,0.0141602,0.6450195,0.0058594,0.96875,0.0097656c0.6479492,0.0004883,1.2973633,0.0014648,1.9477539,0.0024414
			c0.6513672-0.0102539,1.296875-0.0786133,1.9477539-0.1157227c0.6489258-0.0522461,1.3046875-0.0688477,1.9458008-0.1728516
			c1.2885742-0.1723633,2.5844727-0.3256836,3.8457031-0.6025391c0.6328125-0.1313477,1.2744141-0.2280273,1.894043-0.3896484
			c0.6235352-0.15625,1.2446289-0.3115234,1.8632812-0.4667969c0.6225586-0.1430664,1.2241211-0.3378906,1.8286133-0.5195312
			c0.6020508-0.1860352,1.2060547-0.359375,1.7978516-0.5532227c1.1689453-0.4257812,2.3486328-0.7915039,3.4609375-1.2583008
			c0.5610352-0.2236328,1.1186523-0.4453125,1.6689453-0.6645508c0.543457-0.2382812,1.081543-0.4741211,1.6132812-0.706543
			c1.0708008-0.4545898,2.0795898-0.9682617,3.0800781-1.4433594c1.6142578-0.8061523,3.1303711-1.6162109,4.5390625-2.4194336
			c-5.5161133,5.3823242-13.5058594,11.340332-23.0317383,13.5009766
			c-10.4228516,2.3647461-20.7680664-0.2880859-30.7685547-7.8579102c-1.0991211-2.2792969-2.0639648-4.6157227-2.8994141-6.9985352
			C210.8447266,184.2578125,210.972168,184.4013672,211.1132812,184.5351562z M340.2216797,192.4570312
			c-9.4267578,6.5390625-19.1445312,8.7412109-28.9243164,6.5224609
			c-9.3779297-2.1259766-17.2709961-7.934082-22.7773438-13.2490234c1.2817383,0.7192383,2.6518555,1.4453125,4.097168,2.1669922
			c0.9990234,0.4750977,2.0087891,0.9887695,3.0795898,1.4433594c0.5317383,0.2324219,1.0698242,0.4682617,1.612793,0.706543
			c0.5507812,0.2192383,1.1069336,0.440918,1.6689453,0.6645508c1.1123047,0.4667969,2.2929688,0.8325195,3.4614258,1.2583008
			c0.5913086,0.1938477,1.1958008,0.3671875,1.7973633,0.5532227c0.6049805,0.1816406,1.206543,0.3764648,1.8291016,0.5195312
			c0.6181641,0.1552734,1.2397461,0.3105469,1.8632812,0.4667969c0.6201172,0.1616211,1.2617188,0.2583008,1.894043,0.3896484
			c1.2612305,0.2768555,2.5571289,0.4301758,3.8452148,0.6025391c0.6416016,0.1040039,1.2973633,0.1206055,1.9462891,0.1728516
			c0.6503906,0.0371094,1.2958984,0.1054688,1.9477539,0.1157227c0.6503906-0.0009766,1.2998047-0.0019531,1.9477539-0.0024414
			c0.3232422-0.0039062,0.6455078,0.0043945,0.96875-0.0097656l0.9663086-0.0742188
			c0.6411133-0.0512695,1.2807617-0.1015625,1.9165039-0.1513672c0.6328125-0.0810547,1.2602539-0.1962891,1.8842773-0.2929688
			c1.2548828-0.1582031,2.4599609-0.5029297,3.6494141-0.8007812c0.2963867-0.0800781,0.597168-0.1411133,0.8857422-0.2358398
			c0.2875977-0.1010742,0.5742188-0.2011719,0.8574219-0.3007812c0.5673828-0.2006836,1.1313477-0.4003906,1.6870117-0.5961914
			l0.4165039-0.1484375l0.3979492-0.184082c0.2641602-0.1220703,0.5273438-0.2436523,0.7895508-0.3647461
			c0.5224609-0.2421875,1.0375977-0.4814453,1.5458984-0.7182617c0.9956055-0.5141602,1.9160156-1.1010742,2.8286133-1.6225586
			c0.4648438-0.2475586,0.8652344-0.578125,1.2802734-0.8671875c0.4101562-0.2963867,0.8120117-0.5869141,1.206543-0.8720703
			c0.8105469-0.5405273,1.4848633-1.1811523,2.1518555-1.7583008c0.0952148-0.0820312,0.1816406-0.1582031,0.2734375-0.2387695
			C342.3476562,187.9057617,341.3461914,190.2089844,340.2216797,192.4570312z M344.5600586,180.840332
			c-0.4599609,0.4438477-0.9584961,0.9248047-1.4907227,1.4375c-0.1347656,0.1264648-0.2641602,0.2631836-0.4082031,0.3876953
			c-0.1479492,0.1191406-0.2988281,0.2392578-0.4511719,0.3623047c-0.3051758,0.2446289-0.6186523,0.496582-0.9414062,0.7548828
			c-0.6459961,0.5136719-1.2988281,1.0883789-2.0732422,1.5551758c-0.3769531,0.2480469-0.7607422,0.5014648-1.1518555,0.7597656
			c-0.3959961,0.2519531-0.7753906,0.5444336-1.2148438,0.7524414c-0.8618164,0.4418945-1.7265625,0.9472656-2.6557617,1.3793945
			c-0.4746094,0.1962891-0.9545898,0.3945312-1.4414062,0.5947266c-0.2421875,0.1005859-0.4853516,0.2021484-0.7324219,0.3037109
			l-0.3681641,0.1533203l-0.3842773,0.1176758c-0.512207,0.1567383-1.0317383,0.3154297-1.5571289,0.4760742
			c-0.2602539,0.0805664-0.5239258,0.1611328-0.7866211,0.2426758c-0.2661133,0.074707-0.5419922,0.1176758-0.8139648,0.1782227
			c-1.0932617,0.2231445-2.1918945,0.4951172-3.3398438,0.5859375c-0.5693359,0.0634766-1.1411133,0.1464844-1.7177734,0.1962891
			c-0.5800781,0.0205078-1.1635742,0.0415039-1.7490234,0.0625l-0.8793945,0.0327148
			c-0.2939453,0-0.5888672-0.0209961-0.8847656-0.0307617c-0.5898438-0.0234375-1.1811523-0.0473633-1.7734375-0.0708008
			c-0.5927734-0.0332031-1.1860352-0.1245117-1.7792969-0.1821289c-0.5927734-0.0732422-1.1879883-0.1098633-1.7763672-0.2333984
			c-1.1806641-0.2099609-2.3603516-0.3969727-3.5195312-0.7041016c-0.5800781-0.1474609-1.1650391-0.2578125-1.7368164-0.4331055
			c-0.5712891-0.1694336-1.140625-0.3383789-1.7080078-0.5058594c-0.5712891-0.1557617-1.1274414-0.362793-1.6821289-0.5556641
			c-0.5541992-0.1972656-1.109375-0.3803711-1.6547852-0.5849609c-1.0776367-0.4477539-2.1611328-0.8291016-3.1899414-1.3149414
			c-0.5175781-0.2319336-1.0317383-0.4609375-1.5395508-0.6884766c-0.5-0.2456055-0.9970703-0.4882812-1.4882812-0.7290039
			c-0.987793-0.4672852-1.921875-0.9951172-2.8427734-1.4799805c-1.8251953-1.0102539-3.5224609-2.0195312-5.0512695-3.0102539
			c-1.5385742-0.9770508-2.9072266-1.9384766-4.1083984-2.800293c-1.1865234-0.8579102-2.199707-1.6328125-3.0214844-2.2866211
			c12.3237305-9.5166016,22.9042969-21.8930664,22.9042969-44.0512695c0-23.5541992-11.9570312-36.0546875-25.2529297-45.8164062
			c11.9672852-8.8457031,22.6538086-20.2050781,22.6538086-41.4589844c0-9.5283203-2.1523438-17.0654297-5.6005859-23.2817383
			c18.4658203,16.9414062,45.4208984,45.984375,50.1337891,74.6826172v64.8701172
			c0.0957031,6.8823242-0.8085938,13.6235352-2.6420898,20.0634766
			C344.7490234,180.6586914,344.6557617,180.7475586,344.5600586,180.840332z M313.5810547,32.1445312
			c-5.8378906-6.1484375-11.5874023-11.5834961-16.5664062-16.0327148
			c17.355957,11.5268555,42.9052734,32.6557617,50.4697266,60.8447266v5.6108398
			C341.8818359,66.8964844,330.5283203,49.9960938,313.5810547,32.1445312z M312.5029297,23.2412109
			c-6.6015625-5.3154297-13.0180664-9.6538086-18.2797852-12.9189453c4.2416992,1.6674805,9.1572266,3.8867188,14.2841797,6.7792969
			c13.3911133,7.5522461,30.9067383,21.3408203,38.956543,44.2880859c0.0126953,0.5322266,0.0205078,1.0683594,0.0205078,1.6064453
			v3.7421875C339.6005859,47.9697266,324.6943359,33.0585938,312.5029297,23.2412109z M346.1435547,50.0068359
			c-9.3652344-17.8598633-24.2226562-29.1679688-35.9975586-35.8095703
			c-7.6040039-4.2880859-14.6787109-7.1259766-19.9291992-8.9082031
			c14.2827148,1.8496094,27.0039062,6.7285156,36.6586914,14.2143555
			C336.9677734,27.3286133,343.4980469,37.7236328,346.1435547,50.0068359z M221.8520508,24.4223633
			c10.0244141-10.2446289,24.5336914-16.8378906,41.6577148-19.1000977c-5.2421875,1.7841797-12.2758789,4.6132812-19.8339844,8.875
			c-11.3608398,6.4091797-25.59375,17.1625977-34.9936523,33.9541016
			C210.9663086,39.0556641,215.4047852,31.0126953,221.8520508,24.4223633z M206.9760742,59.6899414
			c8.2875977-21.8950195,25.2246094-35.1757812,38.2475586-42.5371094
			c5.1508789-2.9121094,10.0957031-5.1455078,14.362793-6.8227539c-5.2597656,3.2646484-11.6704102,7.6000977-18.2670898,12.9111328
			c-11.909668,9.590332-26.4106445,24.0375977-34.4257812,42.1962891v-1.3398438
			C206.8725586,62.6098633,206.9008789,61.1401367,206.9760742,59.6899414z M226.1499023,209.1166992
			c3.644043,1.0268555,7.2412109,1.5493164,10.7680664,1.5493164c9.9658203,0,19.390625-4.0830078,27.8105469-12.159668
			c2.6879883-2.5786133,5.0024414-5.2973633,6.9477539-7.887207c-0.8764648,1.7368164-1.9013672,3.5356445-3.0981445,5.3305664
			c-8.2514648,12.3779297-20.4052734,18.762207-36.1337891,18.9975586
			c-1.6005859-1.3149414-3.1547852-2.7016602-4.6523438-4.1669922
			C227.2333984,210.234375,226.6879883,209.6777344,226.1499023,209.1166992z M278.1196289,231.1079102l-0.5625,0.0024414
			c-14.8549805,0-29.0708008-4.5703125-41.0166016-13.0322266c18.4775391-1.5673828,29.0703125-11.6679688,34.8110352-20.2783203
			c3.1796875-4.7685547,5.2138672-9.5126953,6.4858398-13.2421875c1.2709961,3.7294922,3.3056641,8.4736328,6.4853516,13.2421875
			c5.6655273,8.4980469,16.0493164,18.4521484,34.0834961,20.2172852
			C306.746582,226.4106445,292.8037109,230.9926758,278.1196289,231.1079102z M322.3818359,214.9306641
			c-15.2724609-0.4492188-27.1157227-6.7919922-35.2182617-18.8808594c-1.2211914-1.8227539-2.265625-3.6513672-3.1567383-5.4199219
			c1.9428711,2.5869141,4.2548828,5.3017578,6.9384766,7.8764648c8.421875,8.0766602,17.8447266,12.159668,27.8115234,12.159668
			c3.1079102,0,6.2695312-0.4091797,9.4697266-1.206543c-0.1904297,0.2011719-0.3798828,0.4033203-0.5737305,0.6020508
			C325.9672852,211.784668,324.2070312,213.4067383,322.3818359,214.9306641z"/>
	</g>
</g>
</svg>
